<?xml version="1.0" standalone="no"?><!DOCTYPE svg PUBLIC "-//W3C//DTD SVG 1.1//EN" "http://www.w3.org/Graphics/SVG/1.1/DTD/svg11.dtd"><svg t="1531169289157" class="icon" style="" viewBox="0 0 1084 1024" version="1.1" xmlns="http://www.w3.org/2000/svg" p-id="3834" xmlns:xlink="http://www.w3.org/1999/xlink" width="33.875" height="32"><defs><style type="text/css"></style></defs><path d="M227.568941 402.913882v527.661177c0 17.408 16.865882 33.189647 39.695059 33.189647h549.707294c22.829176 0 39.755294-15.781647 39.755294-33.249882v-527.661177h60.235294v527.661177c0 51.621647-44.815059 93.485176-99.990588 93.485176H267.264c-55.175529 0-99.990588-41.863529-99.990588-93.485176v-527.661177h60.235294z" fill="#888888" p-id="3835"></path><path d="M441.705412 548.803765v200.764235h200.82447V548.803765H441.705412z m0-60.235294h200.82447a60.235294 60.235294 0 0 1 60.235294 60.235294v200.764235a60.235294 60.235294 0 0 1-60.235294 60.235294H441.705412a60.235294 60.235294 0 0 1-60.235294-60.235294V548.803765a60.235294 60.235294 0 0 1 60.235294-60.235294z" fill="#888888" p-id="3836"></path><path d="M108.664471 536.274824a30.117647 30.117647 0 1 1-43.309177-41.86353l386.710588-399.058823a124.807529 124.807529 0 0 1 180.10353 0l386.710588 399.058823a30.117647 30.117647 0 1 1-43.309176 41.86353L588.980706 137.216a64.632471 64.632471 0 0 0-93.726118 0L108.664471 536.274824z" fill="#888888" p-id="3837"></path></svg>